<svg width="123" height="40" viewBox="0 0 123 40" fill="none" xmlns="http://www.w3.org/2000/svg">
<g clip-path="url(#clip0_485_484)">
<path d="M67.5951 8.359H74.0931L70.8231 31.681H64.3251L67.5951 8.359ZM59.4021 8.359L55.0171 21.794L53.1041 8.359H48.5591L42.8171 21.754L42.1001 8.36H35.8011L37.9941 31.682H43.2171L49.6751 16.932L51.9471 31.682H57.0901L65.5821 8.359H59.4021ZM113.96 21.914H98.5311C98.6111 24.944 100.425 26.937 103.096 26.937C105.11 26.937 106.704 25.86 107.94 23.807L113.148 26.175C111.358 29.702 107.586 32 102.937 32C96.5981 32 92.3921 27.734 92.3921 20.877C92.3921 13.342 97.3351 8 104.312 8C110.452 8 114.319 12.146 114.319 18.605C114.319 19.681 114.199 20.757 113.96 21.914ZM108.18 17.448C108.18 14.738 106.664 13.023 104.233 13.023C101.721 13.023 99.6481 14.817 99.0891 17.448H108.18ZM15.4891 15.387L8.85712 23.139H20.7011L22.0311 19.484H16.9571L20.0571 15.898L20.0671 15.803L18.0511 12.332H27.1231L20.0911 31.682H24.9031L33.3951 8.358H11.4571L15.4901 15.386L15.4891 15.387ZM84.6571 13.023C86.9491 13.023 88.9571 14.256 90.7121 16.369L91.6331 9.794C90.0001 8.688 87.7871 8 84.8571 8C79.0371 8 75.7671 11.409 75.7671 15.734C75.7671 18.734 77.4421 20.568 80.1931 21.754L81.5081 22.352C83.9601 23.399 84.6181 23.917 84.6181 25.023C84.6181 26.169 83.5121 26.897 81.8281 26.897C79.0461 26.907 76.7941 25.482 75.1001 23.05L74.1601 29.749C76.0911 31.22 78.5651 32 81.8271 32C87.3591 32 90.7571 28.81 90.7571 24.385C90.7571 21.375 89.4221 19.442 86.0531 17.927L84.6181 17.249C82.6241 16.362 81.9471 15.874 81.9471 14.897C81.9471 13.841 82.8741 13.023 84.6571 13.023Z" fill="#163300"/>
</g>
<defs>
<clipPath id="clip0_485_484">
<rect width="106" height="24" fill="white" transform="translate(8.85712 8)"/>
</clipPath>
</defs>
</svg>
